<svg width="309" height="257" viewBox="0 0 309 257" fill="none" xmlns="http://www.w3.org/2000/svg">
<g clip-path="url(#clip0)">
<path opacity="0.1" d="M179.531 34.0973C159.721 33.4086 140.854 27.0146 122.838 20.0175C104.823 13.0204 86.9781 5.26732 67.643 1.56065C55.207 -0.823739 40.9834 -1.16043 30.9654 5.50607C21.3208 11.9338 18.2049 22.9987 16.5307 33.277C15.2696 41.0087 14.5289 49.1475 17.9815 56.3833C20.3812 61.4092 24.6357 65.6331 27.5802 70.4478C37.8247 87.1967 30.5828 107.851 19.4844 124.205C14.281 131.879 8.23592 139.203 4.21709 147.364C0.198256 155.524 -1.65965 164.887 1.85721 173.218C5.3404 181.483 13.6443 187.678 22.64 192.04C40.91 200.901 62.4304 203.435 83.4306 204.871C129.903 208.051 176.62 206.673 223.214 205.296C240.459 204.785 257.777 204.268 274.74 201.602C284.161 200.12 293.885 197.772 300.726 192.098C309.406 184.896 311.558 172.701 305.74 163.669C295.982 148.521 269.01 144.759 262.181 128.503C258.429 119.553 262.282 109.587 267.74 101.286C279.444 83.4839 299.061 67.8645 300.092 47.516C300.802 33.5403 291.372 19.5431 276.79 12.9286C261.508 5.99886 240.312 6.86814 229.042 18.3432C217.426 30.158 197.023 34.7034 179.531 34.0973Z" fill="#FFBDC6"/>
<path opacity="0.1" d="M147.987 251.634C199.371 251.634 241.026 245.999 241.026 239.048C241.026 232.097 199.371 226.462 147.987 226.462C96.6025 226.462 54.9475 232.097 54.9475 239.048C54.9475 245.999 96.6025 251.634 147.987 251.634Z" fill="#FFBDC6"/>
<path d="M198.759 88.7091H197.449C197.062 88.7091 196.748 89.0229 196.748 89.4101V110.358C196.748 110.746 197.062 111.059 197.449 111.059H198.759C199.146 111.059 199.46 110.746 199.46 110.358V89.4101C199.46 89.0229 199.146 88.7091 198.759 88.7091Z" fill="#3A3768"/>
<path d="M107.449 71.1981H107.33C106.943 71.1981 106.629 71.5119 106.629 71.899V77.8554C106.629 78.2425 106.943 78.5563 107.33 78.5563H107.449C107.837 78.5563 108.15 78.2425 108.15 77.8554V71.899C108.15 71.5119 107.837 71.1981 107.449 71.1981Z" fill="#3A3768"/>
<path d="M107.587 84.6719H107.275C106.888 84.6719 106.574 84.9857 106.574 85.3728V96.7775C106.574 97.1646 106.888 97.4784 107.275 97.4784H107.587C107.974 97.4784 108.288 97.1646 108.288 96.7775V85.3728C108.288 84.9857 107.974 84.6719 107.587 84.6719Z" fill="#3A3768"/>
<path d="M107.532 101.959H107.302C106.915 101.959 106.602 102.273 106.602 102.66V114.175C106.602 114.562 106.915 114.876 107.302 114.876H107.532C107.919 114.876 108.233 114.562 108.233 114.175V102.66C108.233 102.273 107.919 101.959 107.532 101.959Z" fill="#3A3768"/>
<path d="M186.277 46.8828H119.423C112.832 46.8828 107.489 52.226 107.489 58.817V219.33C107.489 225.921 112.832 231.264 119.423 231.264H186.277C192.868 231.264 198.211 225.921 198.211 219.33V58.817C198.211 52.226 192.868 46.8828 186.277 46.8828Z" fill="#3A3768"/>
<path d="M185.414 51.673H175.007V52.9249C175.007 53.7042 174.854 54.4758 174.556 55.1957C174.257 55.9156 173.82 56.5696 173.269 57.1205C172.718 57.6714 172.063 58.1082 171.343 58.4062C170.623 58.7041 169.852 58.8572 169.072 58.8568H135.976C135.197 58.8572 134.425 58.7041 133.705 58.4062C132.985 58.1082 132.331 57.6714 131.78 57.1205C131.228 56.5696 130.791 55.9156 130.493 55.1957C130.195 54.4758 130.041 53.7042 130.041 52.9249V51.673H120.299C118.388 51.673 116.555 52.4322 115.204 53.7834C113.853 55.1346 113.094 56.9673 113.094 58.8782V219.257C113.094 221.168 113.853 223 115.204 224.352C116.555 225.703 118.388 226.462 120.299 226.462H185.414C187.325 226.462 189.158 225.703 190.509 224.352C191.86 223 192.619 221.168 192.619 219.257V58.8905C192.621 57.9433 192.436 57.005 192.074 56.1294C191.713 55.2538 191.182 54.4581 190.513 53.7877C189.844 53.1174 189.049 52.5855 188.174 52.2227C187.299 51.8598 186.361 51.673 185.414 51.673Z" fill="#FDF7EF"/>
<path d="M155.583 52.3893H145.284C144.63 52.3893 144.099 52.9196 144.099 53.5738V53.7758C144.099 54.43 144.63 54.9604 145.284 54.9604H155.583C156.238 54.9604 156.768 54.43 156.768 53.7758V53.5738C156.768 52.9196 156.238 52.3893 155.583 52.3893Z" fill="#E6E8EC"/>
<path d="M160.144 55.1348C160.951 55.1348 161.604 54.4812 161.604 53.6748C161.604 52.8685 160.951 52.2148 160.144 52.2148C159.338 52.2148 158.684 52.8685 158.684 53.6748C158.684 54.4812 159.338 55.1348 160.144 55.1348Z" fill="#E6E8EC"/>
<path d="M229.621 38.7961C229.621 38.7961 203.849 37.2412 206.886 55.3001C206.886 55.3001 206.273 58.4926 209.175 59.9404C209.175 59.9404 209.221 58.6028 211.82 59.0588C212.745 59.2122 213.685 59.2574 214.62 59.1935C215.882 59.1105 217.083 58.6196 218.042 57.7947C218.042 57.7947 225.287 54.8012 228.103 42.9619C228.103 42.9619 230.187 40.3786 230.105 39.7144L225.755 41.5723C225.755 41.5723 227.243 44.7096 226.061 47.3175C226.061 47.3175 225.921 41.6855 225.085 41.808C224.917 41.8325 222.826 42.8946 222.826 42.8946C222.826 42.8946 225.382 48.3581 223.454 52.3311C223.454 52.3311 224.185 45.5973 222.027 43.2894L218.966 45.0769C218.966 45.0769 221.954 50.7211 219.928 55.3277C219.928 55.3277 220.448 48.2633 218.321 45.5116L215.548 47.6756C215.548 47.6756 218.354 53.2371 216.643 57.057C216.643 57.057 216.42 48.8356 214.948 48.2143C214.948 48.2143 212.52 50.3569 212.15 51.2323C212.15 51.2323 214.072 55.2726 212.879 57.4029C212.879 57.4029 212.147 51.924 211.547 51.8934C211.547 51.8934 209.129 55.5236 208.878 58.0151C208.878 58.0151 208.982 54.3145 210.962 51.5506C210.962 51.5506 208.624 51.9516 207.259 53.4667C207.259 53.4667 207.635 50.9017 211.559 50.6752C211.559 50.6752 213.558 47.9205 214.091 47.7552C214.091 47.7552 210.191 47.4277 207.825 48.4775C207.825 48.4775 209.907 46.0564 214.807 47.1583L217.546 44.9208C217.546 44.9208 212.41 44.2199 210.231 44.9943C210.231 44.9943 212.738 42.8517 218.284 44.4127L221.265 42.6313C221.265 42.6313 216.885 41.6886 214.277 42.0192C214.277 42.0192 217.032 40.5347 222.141 42.1447L224.283 41.1866C224.283 41.1866 221.075 40.5561 220.136 40.4551C219.196 40.3541 219.147 40.097 219.147 40.097C221.179 39.7581 223.266 39.9901 225.174 40.7673C225.174 40.7673 229.698 39.0808 229.621 38.7961Z" fill="#FFBDC6"/>
<path d="M203.185 30.7645C203.185 30.7645 191.554 30.0635 192.913 38.2237C192.913 38.2237 192.641 39.6654 193.948 40.3204C193.948 40.3204 193.969 39.7082 195.144 39.9194C195.562 39.9897 195.986 40.0102 196.408 39.9806C196.979 39.9429 197.522 39.7193 197.954 39.344C197.954 39.344 201.229 37.9911 202.503 32.6407C202.503 32.6407 203.442 31.4746 203.406 31.1746L201.44 32.0133C201.44 32.0133 202.111 33.4304 201.584 34.6089C201.584 34.6089 201.52 32.0653 201.144 32.1235C201.067 32.1235 200.121 32.6163 200.121 32.6163C200.121 32.6163 201.278 35.0864 200.406 36.88C200.406 36.88 200.736 33.8375 199.76 32.7938L198.377 33.6141C198.377 33.6141 199.726 36.1638 198.811 38.2451C198.811 38.2451 199.047 35.0527 198.086 33.81L196.834 34.7895C196.834 34.7895 198.101 37.3024 197.33 39.0287C197.33 39.0287 197.226 35.3129 196.562 35.0313C196.562 35.0313 195.466 35.9985 195.297 36.3964C195.297 36.3964 196.167 38.2329 195.628 39.1848C195.628 39.1848 195.297 36.7086 195.016 36.6964C195.016 36.6964 193.923 38.337 193.81 39.4511C193.865 38.4123 194.19 37.4057 194.753 36.5311C194.122 36.6505 193.54 36.9516 193.078 37.3973C193.078 37.3973 193.25 36.2372 195.022 36.1362C195.022 36.1362 195.94 34.8905 196.167 34.8139C196.167 34.8139 194.404 34.667 193.335 35.1414C193.335 35.1414 194.275 34.0487 196.488 34.5446L197.712 33.5345C197.712 33.5345 195.389 33.2284 194.407 33.5682C194.407 33.5682 195.539 32.601 198.046 33.3049L199.393 32.4999C199.393 32.4999 197.412 32.0745 196.234 32.2275C196.234 32.2275 197.48 31.5572 199.788 32.2826L200.752 31.8511C200.752 31.8511 199.301 31.5664 198.876 31.5205C198.45 31.4746 198.429 31.3583 198.429 31.3583C199.347 31.2054 200.291 31.3114 201.153 31.6643C201.153 31.6643 203.222 30.893 203.185 30.7645Z" fill="#FFBDC6"/>
<path opacity="0.1" d="M264.505 238.099C269.058 238.099 272.748 237.476 272.748 236.707C272.748 235.938 269.058 235.314 264.505 235.314C259.953 235.314 256.262 235.938 256.262 236.707C256.262 237.476 259.953 238.099 264.505 238.099Z" fill="#FFBDC6"/>
<path opacity="0.1" d="M27.8808 249.528C32.4331 249.528 36.1235 248.905 36.1235 248.136C36.1235 247.367 32.4331 246.743 27.8808 246.743C23.3285 246.743 19.6381 247.367 19.6381 248.136C19.6381 248.905 23.3285 249.528 27.8808 249.528Z" fill="#FFBDC6"/>
<path opacity="0.1" d="M59.7652 257C64.3175 257 68.0079 256.376 68.0079 255.607C68.0079 254.838 64.3175 254.215 59.7652 254.215C55.2129 254.215 51.5225 254.838 51.5225 255.607C51.5225 256.376 55.2129 257 59.7652 257Z" fill="#FFBDC6"/>
<path d="M246.462 253.713C253.259 253.713 258.769 252.781 258.769 251.631C258.769 250.482 253.259 249.55 246.462 249.55C239.665 249.55 234.154 250.482 234.154 251.631C234.154 252.781 239.665 253.713 246.462 253.713Z" fill="#FFBDC6"/>
<path d="M251.552 248.228C252.113 247.769 252.522 247.151 252.724 246.455C252.877 245.754 252.577 244.925 251.904 244.653C251.151 244.365 250.346 244.888 249.737 245.415C249.128 245.941 248.427 246.544 247.628 246.431C248.039 246.059 248.347 245.587 248.521 245.061C248.695 244.534 248.73 243.972 248.623 243.428C248.587 243.203 248.491 242.991 248.344 242.816C247.928 242.369 247.169 242.559 246.67 242.914C245.078 244.031 244.634 246.195 244.625 248.139C244.463 247.438 244.601 246.706 244.595 245.996C244.589 245.286 244.396 244.466 243.787 244.089C243.411 243.888 242.989 243.788 242.562 243.802C241.846 243.774 241.05 243.848 240.561 244.371C239.948 245.02 240.114 246.11 240.64 246.82C241.167 247.53 241.972 247.986 242.712 248.479C243.305 248.832 243.81 249.314 244.191 249.89C244.237 249.97 244.273 250.055 244.301 250.144H248.773C249.781 249.633 250.716 248.988 251.552 248.228Z" fill="#FFBDC6"/>
<path d="M60.1906 221.381C60.1906 221.381 61.8741 223.582 59.4163 226.891C56.9584 230.199 54.9322 233.012 55.7433 235.084C55.7433 235.084 59.453 228.917 62.4771 228.831C65.5011 228.745 63.5116 225.091 60.1906 221.381Z" fill="#FFBDC6"/>
<path opacity="0.1" d="M60.1906 221.381C60.3374 221.594 60.4529 221.827 60.5334 222.073C63.4779 225.532 65.0481 228.761 62.2169 228.84C59.5815 228.917 56.4197 233.631 55.6606 234.821C55.6851 234.913 55.7157 235.002 55.7494 235.094C55.7494 235.094 59.4591 228.926 62.4832 228.84C65.5072 228.755 63.5116 225.091 60.1906 221.381Z" fill="black"/>
<path d="M63.3157 224.185C63.3157 224.959 63.23 225.587 63.1229 225.587C63.0158 225.587 62.9301 224.959 62.9301 224.185C62.9301 223.41 63.0372 223.775 63.1443 223.775C63.2514 223.775 63.3157 223.41 63.3157 224.185Z" fill="#FFD037"/>
<path d="M64.39 225.109C63.7105 225.479 63.1167 225.703 63.0677 225.608C63.0188 225.513 63.5238 225.137 64.2033 224.766C64.8828 224.396 64.6165 224.665 64.6655 224.766C64.7144 224.867 65.0695 224.739 64.39 225.109Z" fill="#FFD037"/>
<path d="M51.3112 221.381C51.3112 221.381 49.6278 223.582 52.0856 226.891C54.5434 230.199 56.5697 233.012 55.7586 235.084C55.7586 235.084 52.0519 228.917 49.0248 228.831C45.9977 228.745 47.9841 225.091 51.3112 221.381Z" fill="#FFBDC6"/>
<path opacity="0.1" d="M51.3113 221.381C51.164 221.594 51.0476 221.827 50.9654 222.073C48.0209 225.532 46.4538 228.761 49.282 228.84C51.9204 228.917 55.0822 233.631 55.8413 234.821C55.8162 234.914 55.7855 235.005 55.7494 235.094C55.7494 235.094 52.0428 228.926 49.0157 228.84C45.9886 228.755 47.9842 225.091 51.3113 221.381Z" fill="black"/>
<path d="M48.1831 224.185C48.1831 224.959 48.2719 225.587 48.379 225.587C48.4861 225.587 48.5718 224.959 48.5718 224.185C48.5718 223.41 48.4647 223.775 48.3576 223.775C48.2504 223.775 48.1831 223.41 48.1831 224.185Z" fill="#FFD037"/>
<path d="M47.1118 225.109C47.7913 225.479 48.3821 225.703 48.4341 225.608C48.4861 225.513 47.975 225.137 47.2955 224.766C46.616 224.396 46.8853 224.665 46.8333 224.766C46.7813 224.867 46.4323 224.739 47.1118 225.109Z" fill="#FFD037"/>
<path d="M48.7188 234.806C48.7188 234.806 53.4201 234.659 54.8403 233.652C56.2606 232.645 62.073 231.436 62.422 233.055C62.7709 234.674 69.4893 241.102 64.1819 241.145C58.8745 241.188 51.8469 240.318 50.4328 239.458C49.0187 238.598 48.7188 234.806 48.7188 234.806Z" fill="#A8A8A8"/>
<path opacity="0.2" d="M64.2737 240.582C58.9663 240.625 51.9387 239.755 50.5246 238.895C49.4503 238.237 49.0187 235.883 48.8749 234.8H48.7188C48.7188 234.8 49.0248 238.589 50.4297 239.452C51.8346 240.315 58.8714 241.182 64.1789 241.139C65.7093 241.139 66.2388 240.582 66.2112 239.774C65.997 240.27 65.4124 240.573 64.2737 240.582Z" fill="black"/>
<path d="M86.385 136.115C86.4286 136.157 86.4846 136.184 86.5447 136.192C86.6048 136.2 86.6658 136.188 86.7186 136.158C86.606 136.16 86.4936 136.146 86.385 136.115Z" fill="url(#paint0_linear)"/>
<path d="M123.062 75.2047C122.417 75.015 121.498 74.7058 120.387 74.3171C121.54 72.8112 122.383 71.0915 122.867 69.2575L122.772 69.2943C122.802 69.181 122.836 69.0708 122.867 68.9576C120.742 69.833 118.389 68.3454 116.892 66.4446C115.395 64.5438 114.376 62.1778 112.738 60.4239C112.055 59.7293 111.319 59.0877 110.538 58.5048C110.054 58.1253 109.531 57.7304 108.94 57.712C107.985 57.6845 107.235 58.6303 106.314 58.915C105.706 59.0538 105.073 59.0306 104.477 58.8476C102.099 58.2936 99.8065 57.2743 97.3915 57.0111C96.0935 56.8478 94.7752 56.9979 93.5472 57.4488C92.3228 57.9202 91.7719 58.8537 90.7924 59.5914C89.7303 60.3933 87.6153 60.375 86.3635 60.5096C84.8458 60.684 83.3176 60.7484 81.7906 60.7025C80.9126 60.6231 80.028 60.656 79.1583 60.8004C77.3402 61.2045 75.8802 62.6675 74.5182 64.0755C74.1447 64.397 73.877 64.8237 73.7499 65.2999C73.7331 65.434 73.7331 65.5697 73.7499 65.7039C73.7358 66.0699 73.7984 66.4348 73.9336 66.7752C74.3451 68.0407 74.9324 69.2421 75.6782 70.3441C76.2353 71.1522 76.8811 71.9113 77.2086 72.8662C77.359 73.3365 77.4384 73.8265 77.4443 74.3201C77.4271 74.8447 77.3729 75.3673 77.2821 75.8842C77.0415 77.3095 76.6464 78.7043 76.1037 80.0439C75.8159 80.754 75.4915 81.4611 75.415 82.2385C75.4059 82.3935 75.4059 82.5488 75.415 82.7038C75.3232 85.1004 77.7136 86.8298 78.1697 89.2142C78.2059 89.4113 78.2284 89.6108 78.237 89.811C78.185 91.2986 77.3494 92.7525 76.119 93.3279C76.2261 93.3708 76.3363 93.4075 76.4465 93.4473C76.3407 93.5144 76.2314 93.5757 76.119 93.631C76.3424 93.7167 76.572 93.7901 76.8046 93.8575C75.3972 95.0904 74.2154 96.5591 73.3122 98.1977C69.1924 106.012 41.1126 121.341 41.1126 121.341C41.1126 121.341 41.2718 121.429 41.5289 121.583C41.4248 121.647 41.3146 121.72 41.1922 121.803C38.7619 123.444 33.0566 128.231 38.214 134.267C38.214 134.267 42.239 127.824 45.058 125.084C45.1865 124.962 45.309 124.848 45.4283 124.741C45.4913 124.838 45.5337 124.947 45.5526 125.06C45.5716 125.174 45.5668 125.291 45.5385 125.402L64.0043 114.882C64.0043 114.882 70.5667 110.224 72.397 109.171C73.0276 108.81 74.6345 107.806 76.5567 107.362L76.3424 107.457C77.0323 107.264 77.7442 107.161 78.4605 107.151C81.7294 107.203 85.2677 109.63 86.4369 119.244C88.001 132.118 87.2756 134.438 86.7736 134.756C86.7114 134.752 86.6498 134.74 86.59 134.723C86.6049 134.737 86.6213 134.749 86.6389 134.759C86.5704 134.755 86.5026 134.743 86.4369 134.723C86.4722 134.756 86.5155 134.78 86.5627 134.792C86.6099 134.804 86.6594 134.803 86.7063 134.79C86.7403 134.8 86.7761 134.803 86.8113 134.799C86.8466 134.795 86.8806 134.783 86.9113 134.766C86.9817 134.766 87.0644 134.766 87.1593 134.766C87.1593 134.882 87.1409 135.004 87.1317 135.124C87.1072 135.124 86.9848 135.194 87.1317 135.203C87.095 135.929 87.0981 136.734 87.1317 137.545C85.5064 137.637 83.8842 137.735 82.461 137.823L82.5895 137.141L82.6477 136.835C83.8934 136.734 85.0779 136.363 85.2157 135.335C85.5218 133.082 82.4609 131.879 79.8746 131.729C77.2882 131.579 61.7148 132.632 61.7148 132.632C61.7148 132.632 59.3795 135.693 66.7835 136.645C67.0039 136.761 67.2335 136.89 67.4661 137.024C70.3647 138.702 74.3009 141.787 76.1832 143.308L76.4465 143.52L75.6017 144.202C80.1929 145.255 84.6066 162.99 87.046 171.104C89.4855 179.218 94.8296 178.918 99.2556 177.718C103.403 176.589 103.932 164.379 103.981 162.846C103.981 162.742 103.981 162.69 103.981 162.69L111.355 171.906L111.915 172.607C112.132 172.72 112.344 172.827 112.552 172.928C118.138 175.625 124.308 170.458 122.551 164.581C120.779 158.643 118.024 149.868 116.188 146.158C114.657 143.051 112.665 137.894 111.459 134.655C111.615 134.591 111.768 134.517 111.915 134.435C111.915 134.435 111.887 134.291 111.839 134.025L111.915 133.985C111.915 133.985 110.14 124.634 110.042 117.995C110.042 117.879 110.042 117.763 110.042 117.646C110.042 117.53 110.042 117.502 110.042 117.429C111.376 117.123 112.221 117 112.221 117L112.246 116.713L112.089 116.746L112.83 108.133C112.83 108.133 115.554 102.259 113.47 99.8108C112.835 99.0919 112.412 98.2117 112.246 97.2672C111.897 95.0145 112.246 91.2649 117.103 88.1459C124.581 83.3374 127.482 79.4287 127.482 79.4287C127.482 79.4287 127.641 76.5576 123.062 75.2047ZM108.211 81.1795V77.2004C109.598 77.1331 111.015 77.2953 112.408 77.2004C113.093 77.1521 113.771 77.0373 114.434 76.8576L114.771 77.0933C112.733 78.6809 110.535 80.0504 108.211 81.1795ZM87.0124 143.562C87.5602 143.948 88.1112 144.349 88.6529 144.75C88.9896 146.712 89.2865 148.099 89.308 148.193C88.6892 146.581 87.9206 145.031 87.0124 143.562Z" fill="url(#paint1_linear)"/>
<path d="M98.9985 141.049L98.668 142.843L98.4139 144.214L97.9517 146.724L93.4707 149.862C93.4707 149.862 93.0667 149.516 92.3994 148.971C90.563 147.459 86.7033 144.38 83.869 142.727C83.14 142.262 82.3513 141.899 81.5244 141.646L98.9985 141.049Z" fill="#FFBDC6"/>
<path opacity="0.1" d="M98.9985 141.049L98.668 142.843C97.6797 142.897 96.6886 142.845 95.7112 142.69L85.2555 142.84C84.7627 142.809 84.3006 142.773 83.869 142.727C83.14 142.262 82.3513 141.899 81.5244 141.646L98.9985 141.049Z" fill="black"/>
<path d="M95.7112 142.384C95.7112 142.384 100.936 143.281 101.242 141.049C101.548 138.818 98.5516 137.612 96.0142 137.462C93.4768 137.312 78.2402 138.359 78.2402 138.359C78.2402 138.359 75.5528 141.943 85.2586 142.543L95.7112 142.384Z" fill="#474463"/>
<path opacity="0.1" d="M98.9985 141.049L98.668 142.843L98.4139 144.214L97.9517 146.724L93.4707 149.862C93.4707 149.862 93.0667 149.516 92.3994 148.971C90.563 147.459 86.7033 144.38 83.869 142.727C83.14 142.262 82.3513 141.899 81.5244 141.646L98.9985 141.049Z" fill="black"/>
<path opacity="0.1" d="M98.9985 141.049L98.668 142.843C97.6797 142.897 96.6886 142.845 95.7112 142.69L85.2555 142.84C84.7627 142.809 84.3006 142.773 83.869 142.727C83.14 142.262 82.3513 141.899 81.5244 141.646L98.9985 141.049Z" fill="black"/>
<path opacity="0.1" d="M95.7112 142.378C95.7112 142.378 100.939 143.272 101.239 141.031C101.539 138.791 98.5486 137.597 96.0112 137.447C93.4738 137.297 78.2371 138.344 78.2371 138.344C78.2371 138.344 75.5497 141.928 85.2555 142.525L95.7112 142.378Z" fill="black"/>
<path d="M107.137 68.7525H79.8042V101.164H107.137V68.7525Z" fill="#474463"/>
<path opacity="0.1" d="M107.137 68.8994H79.8042V101.311H107.137V68.8994Z" fill="black"/>
<path d="M47.7698 124.236C47.3199 124.35 46.7444 124.784 46.1047 125.415C43.35 128.142 39.4047 134.542 39.4047 134.542C34.3605 128.534 39.9434 123.786 42.3216 122.155C42.9001 121.76 43.2888 121.543 43.2888 121.543L47.7698 124.236Z" fill="#FFBDC6"/>
<path d="M98.6986 78.9818C98.6986 78.9818 100.042 88.3908 104.673 90.6313C109.304 92.8719 98.6986 97.0591 98.6986 97.0591L84.2118 91.6782C84.2118 91.6782 92.427 88.9877 90.7833 81.0724L98.6986 78.9818Z" fill="#FFBDC6"/>
<path d="M83.1651 135.589L82.8376 137.376L82.5713 138.754L82.1091 141.264L77.6281 144.398C77.6281 144.398 77.2241 144.055 76.5568 143.51C74.7203 141.998 70.8606 138.919 68.0233 137.266C67.2946 136.801 66.5058 136.437 65.6787 136.186L83.1651 135.589Z" fill="#FFBDC6"/>
<path opacity="0.1" d="M83.165 135.589L82.8375 137.376C81.8493 137.43 80.8582 137.379 79.8808 137.223L69.4251 137.373C68.9323 137.343 68.4671 137.306 68.0355 137.26C67.3068 136.795 66.518 136.431 65.6909 136.18L83.165 135.589Z" fill="black"/>
<path d="M79.8807 136.933C79.8807 136.933 85.1085 137.826 85.4054 135.589C85.7023 133.351 82.718 132.152 80.1776 132.002C77.6371 131.852 62.4066 132.898 62.4066 132.898C62.4066 132.898 59.7161 136.483 69.425 137.083L79.8807 136.933Z" fill="#474463"/>
<path opacity="0.1" d="M82.5712 138.754L82.109 141.264L77.628 144.398C77.628 144.398 77.224 144.055 76.5568 143.51L82.4825 138.65L82.5712 138.754Z" fill="black"/>
<path d="M112.166 172.946C111.961 172.845 111.756 172.741 111.554 172.64L111.003 171.946L103.776 162.781C103.776 162.781 103.776 162.836 103.776 162.941C103.728 164.471 103.207 176.598 99.1486 177.718C94.8175 178.912 89.5927 179.212 87.2114 171.147C84.8301 163.081 80.4777 145.457 76.0089 144.41L82.657 138.959C82.657 138.959 87.0584 144.107 88.852 149.035C88.7847 148.729 85.7453 134.527 88.2399 132.014H110.048C110.048 132.014 113.415 141.603 115.723 146.354C117.519 150.042 120.216 158.763 121.952 164.664C123.672 170.492 117.633 175.637 112.166 172.946Z" fill="#474463"/>
<path opacity="0.1" d="M111.545 134.692C108.178 136.685 93.3972 135.874 88.5887 135.549L87.2787 135.454C87.1379 135.454 87.3001 135.375 87.3001 135.375L87.4348 134.019L91.019 124.91L110.21 113.78C109.821 114.953 109.693 116.746 109.724 118.8C109.812 125.399 111.545 134.692 111.545 134.692Z" fill="black"/>
<path d="M111.545 134.242C108.178 136.235 93.3973 135.424 88.5887 135.099L87.2787 135.007L87.0614 134.989L87.3001 134.928L88.4816 134.622L91.019 124.466L110.21 113.34C109.822 114.512 109.693 116.306 109.724 118.359C109.812 124.952 111.545 134.242 111.545 134.242Z" fill="#F2F1F2"/>
<path opacity="0.1" d="M109.711 118.353C105.809 119.253 97.2202 121.895 93.9207 128.27C91.7199 132.516 89.8682 134.337 88.5765 135.099L87.2665 135.007C87.275 134.981 87.2822 134.955 87.2879 134.928L88.4694 134.622L91.0068 124.466L110.198 113.34C109.812 114.506 109.681 116.3 109.711 118.353Z" fill="black"/>
<path opacity="0.1" d="M43.2889 121.549L47.7699 124.236C47.3199 124.35 46.7445 124.784 46.1048 125.415C45.7314 124.325 43.3868 122.804 42.3217 122.155C42.9001 121.766 43.2889 121.549 43.2889 121.549Z" fill="black"/>
<path opacity="0.1" d="M86.4676 135.182C86.4184 135.207 86.3625 135.217 86.3077 135.209C86.2528 135.202 86.2017 135.177 86.1615 135.139C86.2609 135.168 86.364 135.183 86.4676 135.182Z" fill="black"/>
<path d="M96.608 90.0345C96.608 90.0345 92.5739 90.4814 89.7365 87.494C89.7365 87.494 77.7994 90.9313 73.7561 98.6967C69.7128 106.462 42.2299 121.699 42.2299 121.699C42.2299 121.699 47.0108 124.386 46.5609 125.73L64.6349 115.274C64.6349 115.274 71.0626 110.646 72.847 109.599C74.6315 108.553 84.4995 102.131 86.59 119.605C88.6806 137.08 86.59 134.989 86.59 134.989C86.59 134.989 89.5774 136.036 93.9084 127.671C98.2394 119.305 111.679 117.365 111.679 117.365L112.426 108.556C112.426 108.556 115.092 102.716 113.038 100.291C112.416 99.5736 112.002 98.6993 111.842 97.7631C111.502 95.5256 111.842 91.7975 116.598 88.7C123.916 83.9189 126.754 80.0378 126.754 80.0378C126.754 80.0378 126.904 77.1973 122.423 75.8536C117.942 74.5099 99.7209 67.1915 99.7209 67.1915L99.1087 69.732L113.485 79.8786C113.485 79.8786 106.317 85.6942 100.63 85.5534C100.63 85.5534 101.686 89.8845 96.608 90.0345Z" fill="#FF748E"/>
<path opacity="0.1" d="M99.375 83.0772C99.0217 81.88 98.7457 80.6613 98.5486 79.4287L90.6333 81.5192C90.9823 83.0303 90.9199 84.6072 90.4528 86.086C92.071 86.5179 93.7807 86.4628 95.3678 85.9276C96.9549 85.3924 98.3488 84.4009 99.375 83.0772Z" fill="black"/>
<path d="M92.8004 85.9268C97.5015 85.9268 101.312 82.1158 101.312 77.4147C101.312 72.7135 97.5015 68.9025 92.8004 68.9025C88.0993 68.9025 84.2883 72.7135 84.2883 77.4147C84.2883 82.1158 88.0993 85.9268 92.8004 85.9268Z" fill="#FFBDC6"/>
<path opacity="0.1" d="M97.3274 58.0549C99.6903 58.3212 101.934 59.3374 104.26 59.8914C104.841 60.0732 105.46 60.0974 106.054 59.9618C106.957 59.6802 107.691 58.7374 108.628 58.765C109.203 58.765 109.714 59.1751 110.189 59.5516C110.95 60.1331 111.667 60.7715 112.331 61.4616C113.935 63.2032 114.93 65.5478 116.393 67.4425C117.856 69.3371 120.164 70.8094 122.242 69.9401C120.828 75.4496 116.197 79.646 111.187 79.9888C109.188 80.1235 107.14 79.7072 105.206 80.2949C104.724 80.491 104.215 80.6148 103.697 80.6622C102.583 80.6622 101.686 79.6399 100.991 78.6451C99.3628 76.3066 98.0742 73.6498 96.2408 71.5164C95.6286 70.8124 94.9216 70.1421 94.0646 70.0136C93.2075 69.885 92.4209 70.2921 91.6588 70.6869C90.4008 71.3389 89.1152 72.0153 88.1388 73.1356C87.1625 74.2559 86.5472 75.921 86.9513 77.4208C87.1686 78.235 87.6644 78.9696 87.6736 79.8205C87.692 81.1764 86.4921 82.1712 86.2565 83.4935C86.2033 84.0489 86.1839 84.607 86.1983 85.1647C86.0942 86.9767 84.9097 88.4612 83.6731 89.5999C83.1895 90.0437 82.657 90.5181 82.5162 91.2037C82.4213 91.669 82.5162 92.1648 82.4549 92.6362C82.2744 93.8116 81.1021 94.4084 80.0645 94.5645C78.8521 94.741 77.6146 94.5943 76.4772 94.1391C77.928 93.4504 78.8218 91.5006 78.4851 89.7498C78.0229 87.3256 75.5865 85.5871 75.7946 83.117C75.9096 82.3602 76.1365 81.6247 76.468 80.9346C76.9993 79.6027 77.3852 78.2173 77.6189 76.8025C77.8025 75.7067 77.8913 74.5467 77.5485 73.506C77.2424 72.5541 76.6027 71.8011 76.0609 70.9992C75.3258 69.9072 74.7459 68.7184 74.3377 67.4669C74.1885 67.0975 74.1318 66.6972 74.1724 66.3008C74.2916 65.8257 74.5533 65.3984 74.9223 65.0764C76.2538 63.6776 77.677 62.2207 79.4615 61.8228C80.3127 61.6789 81.1788 61.6449 82.0387 61.7218C83.534 61.7703 85.0308 61.7068 86.5166 61.532C87.7409 61.3881 89.81 61.4096 90.8477 60.6137C91.8149 59.87 92.3597 58.9425 93.5503 58.4712C94.7568 58.0273 96.0532 57.8844 97.3274 58.0549Z" fill="black"/>
<path opacity="0.1" d="M102.059 145.968C102.059 145.968 106.987 155.677 105.494 158.661L102.059 145.968Z" fill="black"/>
<path opacity="0.1" d="M110.994 171.933L103.776 162.781C103.776 162.781 103.776 162.836 103.776 162.941C103.776 162.941 103.36 159.978 104.734 160.972C107.746 163.152 112.564 166.724 112.668 167.339C112.772 167.954 111.692 170.412 110.994 171.933Z" fill="black"/>
<g opacity="0.1">
<path opacity="0.1" d="M100.789 85.5534C100.789 85.5534 101.401 88.0756 99.4301 89.3366C102.46 88.8193 102.595 86.4594 102.491 85.4341C101.928 85.5242 101.359 85.5641 100.789 85.5534Z" fill="black"/>
<path opacity="0.1" d="M44.0357 121.099C44.0357 121.099 71.5156 105.865 75.562 98.0998C78.4544 92.526 85.4269 89.1836 89.1305 87.7389C86.4309 88.6571 77.3342 92.1189 73.9183 98.6967C69.8873 106.462 42.3921 121.699 42.3921 121.699L44.0357 121.099Z" fill="black"/>
<path opacity="0.1" d="M106.139 84.3658C110.816 82.9119 115.285 79.2818 115.285 79.2818L100.936 69.1198L101.264 67.7302L99.8892 67.1792L99.2924 69.7197L113.632 79.8756C111.334 81.6824 108.816 83.1912 106.139 84.3658Z" fill="black"/>
<path opacity="0.1" d="M106.222 118.785C108.054 118.16 109.933 117.685 111.842 117.365L111.866 117.077C109.943 117.5 108.056 118.071 106.222 118.785Z" fill="black"/>
<path opacity="0.1" d="M88.8428 134.432H88.7112C88.6619 134.457 88.6061 134.466 88.5514 134.459C88.4966 134.451 88.4456 134.427 88.4051 134.389C88.5045 134.418 88.6076 134.432 88.7112 134.432C89.2009 134.147 89.9355 131.916 88.4051 119.005C86.7584 105.232 80.2787 106.306 76.7343 107.891C80.3582 106.894 85.3443 107.757 86.7614 119.602C88.3072 132.513 87.5695 134.744 87.0675 135.029C87.7044 135.005 88.3209 134.798 88.8428 134.432Z" fill="black"/>
<path opacity="0.1" d="M87.0676 135.032C86.964 135.032 86.8609 135.018 86.7615 134.989C86.8019 135.027 86.853 135.051 86.9078 135.059C86.9625 135.066 87.0183 135.057 87.0676 135.032Z" fill="black"/>
</g>
<path d="M97.3273 57.7549C99.6902 58.0242 101.934 59.0374 104.26 59.5914C104.841 59.7722 105.46 59.7954 106.054 59.6587C106.957 59.3802 107.691 58.4344 108.628 58.4619C109.203 58.4803 109.714 58.8721 110.189 59.2486C110.95 59.8309 111.666 60.4693 112.331 61.1585C113.935 62.9002 114.93 65.2448 116.393 67.1394C117.856 69.0341 120.164 70.5063 122.242 69.6371C120.828 75.1466 116.197 79.343 111.187 79.6858C109.188 79.8235 107.14 79.4072 105.206 79.9919C104.724 80.1894 104.215 80.3132 103.697 80.3592C102.583 80.3592 101.686 79.3368 100.991 78.3421C99.3627 76.0036 98.0741 73.3499 96.2407 71.2165C95.6286 70.5094 94.9215 69.8391 94.0645 69.7105C93.2075 69.582 92.4209 69.9921 91.6587 70.387C90.4007 71.0389 89.1152 71.7123 88.1388 72.8356C87.1624 73.959 86.5472 75.6179 86.9512 77.1208C87.1685 77.935 87.6644 78.6696 87.6736 79.5205C87.6919 80.8795 86.4921 81.8712 86.2564 83.1935C86.2032 83.7489 86.1838 84.307 86.1982 84.8647C86.0942 86.6767 84.9097 88.1582 83.6731 89.2999C83.1895 89.7406 82.6569 90.2181 82.5161 90.9007C82.4212 91.369 82.5161 91.8618 82.4549 92.3362C82.2743 93.5116 81.102 94.1084 80.0644 94.2615C78.8521 94.4409 77.6139 94.2941 76.4771 93.836C77.928 93.1504 78.8217 91.1976 78.485 89.4498C78.0229 87.0257 75.5865 85.284 75.7946 82.817C75.9091 82.0601 76.1361 81.3245 76.468 80.6346C76.9989 79.3015 77.3847 77.9151 77.6188 76.4994C77.8025 75.4067 77.8912 74.2467 77.5484 73.2029C77.2423 72.2541 76.6026 71.498 76.0609 70.6961C75.3264 69.6049 74.7465 68.4172 74.3377 67.167C74.1893 66.7962 74.1326 66.3951 74.1724 65.9977C74.2951 65.5285 74.5564 65.1071 74.9223 64.7887C76.2537 63.3899 77.677 61.936 79.4614 61.535C80.3129 61.3936 81.1789 61.3607 82.0386 61.4371C83.5339 61.484 85.0306 61.4206 86.5166 61.2473C87.7409 61.1035 89.81 61.1218 90.8476 60.3291C91.8148 59.5883 92.3596 58.6578 93.5503 58.1865C94.7559 57.7396 96.0519 57.5915 97.3273 57.7549Z" fill="#474463"/>
<path d="M153.404 158.499C162.882 158.499 170.566 150.816 170.566 141.337C170.566 131.859 162.882 124.175 153.404 124.175C143.926 124.175 136.242 131.859 136.242 141.337C136.242 150.816 143.926 158.499 153.404 158.499Z" fill="white"/>
<path d="M175.953 139.075C175.953 143.612 174.608 148.047 172.087 151.819C169.567 155.591 165.985 158.531 161.793 160.267C157.602 162.003 152.99 162.457 148.541 161.572C144.091 160.687 140.004 158.503 136.796 155.295C133.588 152.087 131.404 148 130.519 143.55C129.634 139.101 130.088 134.489 131.824 130.297C133.56 126.106 136.5 122.523 140.272 120.003C144.044 117.483 148.479 116.137 153.016 116.137C159.099 116.137 164.933 118.554 169.235 122.856C173.537 127.157 175.953 132.992 175.953 139.075ZM150.365 151.218L167.38 134.202C167.518 134.065 167.627 133.902 167.701 133.722C167.776 133.543 167.814 133.35 167.814 133.156C167.814 132.961 167.776 132.768 167.701 132.589C167.627 132.409 167.518 132.246 167.38 132.109L165.286 130.03C165.149 129.893 164.986 129.784 164.807 129.709C164.628 129.635 164.435 129.596 164.241 129.596C164.047 129.596 163.854 129.635 163.675 129.709C163.496 129.784 163.333 129.893 163.196 130.03L149.318 143.908L142.838 137.413C142.56 137.137 142.184 136.981 141.792 136.981C141.399 136.981 141.023 137.137 140.745 137.413L138.651 139.519C138.375 139.797 138.219 140.174 138.219 140.566C138.219 140.958 138.375 141.334 138.651 141.613L148.271 151.23C148.409 151.367 148.572 151.477 148.751 151.551C148.931 151.626 149.124 151.664 149.318 151.664C149.513 151.664 149.705 151.626 149.885 151.551C150.064 151.477 150.228 151.367 150.365 151.23V151.218Z" fill="#3ACC6C"/>
</g>
<defs>
<linearGradient id="paint0_linear" x1="86.5534" y1="136.195" x2="86.5534" y2="136.115" gradientUnits="userSpaceOnUse">
<stop stop-color="#808080" stop-opacity="0.25"/>
<stop offset="0.54" stop-color="#808080" stop-opacity="0.12"/>
<stop offset="1" stop-color="#808080" stop-opacity="0.1"/>
</linearGradient>
<linearGradient id="paint1_linear" x1="33154.2" y1="74456.5" x2="33154.2" y2="26308.4" gradientUnits="userSpaceOnUse">
<stop stop-color="#808080" stop-opacity="0.25"/>
<stop offset="0.54" stop-color="#808080" stop-opacity="0.12"/>
<stop offset="1" stop-color="#808080" stop-opacity="0.1"/>
</linearGradient>
<clipPath id="clip0">
<rect width="309" height="257" fill="white"/>
</clipPath>
</defs>
</svg>
